<svg width="38" height="38" viewBox="0 0 38 38" fill="none" xmlns="http://www.w3.org/2000/svg">
<g clip-path="url(#clip0_1478_2947)">
<path d="M29.9245 22.2107C30.4616 22.2107 30.9743 22.3083 31.4626 22.5037C31.9509 22.699 32.3904 22.9919 32.781 23.3826L36.8093 27.4109C37.1877 27.7893 37.4746 28.2227 37.6699 28.7109C37.8652 29.1992 37.969 29.718 37.9812 30.2673C37.9812 30.8044 37.8835 31.3171 37.6882 31.8054C37.4929 32.2937 37.1999 32.7332 36.8093 33.1238L36.5529 33.3801C35.8938 34.0393 35.2895 34.6252 34.7402 35.1379C34.1909 35.6506 33.6172 36.0779 33.019 36.4197C32.4209 36.7615 31.7556 37.03 31.0232 37.2253C30.2907 37.4207 29.4179 37.5122 28.4048 37.5C26.8789 37.5 25.3103 37.262 23.6989 36.7859C22.0876 36.3098 20.4885 35.6506 18.9016 34.8083C17.3147 33.9661 15.7522 32.9651 14.2141 31.8054C12.676 30.6458 11.2295 29.3823 9.87448 28.0151C8.5195 26.6479 7.26218 25.1953 6.10251 23.6572C4.94284 22.1191 3.95407 20.5566 3.1362 18.9697C2.31833 17.3828 1.67136 15.7898 1.19528 14.1907C0.719208 12.5916 0.487274 11.0535 0.499481 9.57642C0.499481 8.56323 0.58493 7.69653 0.755829 6.97632C0.926727 6.2561 1.18918 5.59692 1.54318 4.99878C1.89719 4.40063 2.32443 3.83301 2.82492 3.2959C3.32541 2.75879 3.91135 2.15454 4.58273 1.48315L4.8757 1.19019C5.25412 0.811768 5.68747 0.518799 6.17575 0.311279C6.66403 0.10376 7.18283 0 7.73215 0C8.26926 0 8.78195 0.10376 9.27023 0.311279C9.75851 0.518799 10.198 0.811768 10.5886 1.19019L14.6169 5.21851C14.9953 5.59692 15.2822 6.03027 15.4775 6.51855C15.6728 7.00683 15.7766 7.52563 15.7888 8.07495C15.7888 8.61206 15.6972 9.08813 15.5141 9.50317C15.331 9.91821 15.1052 10.3027 14.8366 10.6567C14.5681 11.0107 14.2751 11.322 13.9577 11.5906C13.6404 11.8591 13.3413 12.1338 13.0605 12.4145C12.7798 12.6953 12.5539 12.9639 12.383 13.2202C12.2121 13.4766 12.1206 13.7756 12.1084 14.1174C12.1084 14.5813 12.2732 14.978 12.6028 15.3076L22.6919 25.3967C23.0215 25.7263 23.4182 25.8911 23.882 25.8911C24.1994 25.8911 24.4924 25.7996 24.761 25.6165C25.0295 25.4333 25.3042 25.2075 25.5849 24.939C25.8657 24.6704 26.1404 24.3774 26.4089 24.0601C26.6775 23.7427 26.9887 23.4436 27.3427 23.1628C27.6967 22.8821 28.0752 22.6562 28.478 22.4853C28.8808 22.3145 29.363 22.2229 29.9245 22.2107ZM28.4048 35.1562C29.2837 35.1562 30.0161 35.0769 30.602 34.9182C31.188 34.7595 31.7251 34.5215 32.2133 34.2041C32.7016 33.8867 33.1655 33.4961 33.6049 33.0322C34.0444 32.5684 34.5632 32.0435 35.1613 31.4575C35.4909 31.1279 35.6557 30.7312 35.6557 30.2673C35.6557 30.0476 35.5703 29.7913 35.3994 29.4983C35.2285 29.2053 34.9966 28.8879 34.7036 28.5461C34.4106 28.2043 34.0993 27.8686 33.7697 27.5391C33.4402 27.2095 33.0984 26.8799 32.7444 26.5503C32.3904 26.2207 32.0791 25.9338 31.8105 25.6897C31.542 25.4456 31.3161 25.2319 31.133 25.0488C30.8034 24.7192 30.4006 24.5544 29.9245 24.5544C29.6071 24.5544 29.3142 24.646 29.0456 24.8291C28.7771 25.0122 28.5085 25.238 28.24 25.5066C27.9714 25.7751 27.6967 26.0681 27.416 26.3855C27.1352 26.7029 26.8178 27.002 26.4638 27.2827C26.1098 27.5635 25.7314 27.7893 25.3286 27.9602C24.9258 28.1311 24.4436 28.2227 23.882 28.2349C23.3449 28.2349 22.8322 28.1372 22.344 27.9419C21.8557 27.7466 21.4162 27.4536 21.0256 27.063L10.9365 16.9739C10.5581 16.5955 10.2712 16.1621 10.0759 15.6738C9.88059 15.1855 9.77682 14.6667 9.76462 14.1174C9.76462 13.5803 9.85617 13.1042 10.0393 12.6892C10.2224 12.2742 10.4482 11.8896 10.7168 11.5356C10.9853 11.1816 11.2783 10.8704 11.5957 10.6018C11.9131 10.3333 12.2121 10.0525 12.4929 9.75952C12.7737 9.46655 12.9995 9.198 13.1704 8.95386C13.3413 8.70972 13.4328 8.41675 13.445 8.07495C13.445 7.59888 13.2802 7.19604 12.9507 6.86645C12.792 6.70776 12.5844 6.48804 12.3281 6.20727C12.0717 5.92651 11.7849 5.61523 11.4675 5.27344C11.1501 4.93164 10.8205 4.58984 10.4787 4.24805C10.1369 3.90625 9.79514 3.58887 9.45334 3.2959C9.11154 3.00293 8.80026 2.7771 8.5195 2.61841C8.23874 2.45972 7.97629 2.36816 7.73215 2.34375C7.26828 2.34375 6.87155 2.50854 6.54196 2.83813L4.98557 4.39453C4.53391 4.84619 4.14328 5.31006 3.81369 5.78613C3.4841 6.26221 3.23996 6.79321 3.08127 7.37915C2.92258 7.96509 2.83713 8.69751 2.82492 9.57642C2.82492 10.9436 3.04465 12.3535 3.4841 13.8062C3.92355 15.2588 4.54001 16.7114 5.33347 18.1641C6.12692 19.6167 7.06076 21.0449 8.13498 22.4487C9.2092 23.8525 10.3811 25.1892 11.6506 26.4587C12.9201 27.7283 14.2568 28.8879 15.6606 29.9377C17.0644 30.9875 18.4926 31.9031 19.9453 32.6843C21.3979 33.4656 22.8383 34.0698 24.2666 34.4971C25.6948 34.9243 27.0742 35.144 28.4048 35.1562Z" fill="#E3DED8"/>
</g>
<defs>
<clipPath id="clip0_1478_2947">
<rect width="37.5" height="37.5" fill="white" transform="translate(0.5)"/>
</clipPath>
</defs>
</svg>
