<?xml version="1.0" encoding="utf-8"?><svg viewBox="0 0 38 38" xmlns="http://www.w3.org/2000/svg" xmlns:xlink="http://www.w3.org/1999/xlink"><style>:root>svg{display:none}:root>svg:target{display:block}</style><svg viewBox="0 0 38 38" id="phone" xmlns="http://www.w3.org/2000/svg"><g clip-path="url(#aa)"><path d="M29.924 22.21c.538 0 1.05.098 1.539.294a3.9 3.9 0 011.318.879l4.028 4.028c.379.378.666.812.86 1.3.196.488.3 1.007.312 1.556 0 .537-.098 1.05-.293 1.538a3.902 3.902 0 01-.879 1.319l-.256.256c-.66.66-1.264 1.245-1.813 1.758a9.26 9.26 0 01-1.721 1.282 8.326 8.326 0 01-1.996.805c-.732.196-1.605.287-2.618.275-1.526 0-3.095-.238-4.706-.714a25.858 25.858 0 01-4.797-1.978 35.22 35.22 0 01-4.688-3.003 40.032 40.032 0 01-4.34-3.79 42.716 42.716 0 01-3.771-4.358 32.618 32.618 0 01-2.967-4.687 27.658 27.658 0 01-1.94-4.78c-.478-1.597-.71-3.135-.698-4.613 0-1.013.086-1.88.257-2.6.17-.72.433-1.38.787-1.977a9.876 9.876 0 011.282-1.703c.5-.537 1.086-1.141 1.758-1.813l.293-.293a4.08 4.08 0 011.3-.879A3.938 3.938 0 017.732 0 3.9 3.9 0 019.27.311c.489.208.928.5 1.319.88l4.028 4.028c.378.378.665.811.86 1.3.196.488.3 1.007.312 1.556 0 .537-.092 1.013-.275 1.428a5.84 5.84 0 01-1.556 2.087c-.318.27-.617.544-.898.825-.28.28-.506.549-.677.805a1.71 1.71 0 00-.275.897c0 .464.165.861.495 1.19l10.089 10.09c.33.33.726.494 1.19.494.317 0 .61-.091.879-.274.268-.184.543-.41.824-.678.28-.269.555-.562.824-.879.268-.317.58-.616.934-.897a4.93 4.93 0 011.135-.678c.403-.17.885-.262 1.446-.274zm-1.52 12.946c.88 0 1.612-.08 2.198-.238a5.64 5.64 0 001.611-.714 7.708 7.708 0 001.392-1.172c.44-.464.958-.988 1.556-1.574.33-.33.495-.727.495-1.19 0-.22-.086-.477-.257-.77a6.623 6.623 0 00-.695-.952 17.867 17.867 0 00-.934-1.007c-.33-.33-.672-.66-1.026-.989-.354-.33-.665-.616-.933-.86a20.031 20.031 0 01-.678-.641 1.644 1.644 0 00-1.209-.495c-.317 0-.61.092-.878.275a5.648 5.648 0 00-.806.678c-.269.268-.543.561-.824.878a7.36 7.36 0 01-.952.898c-.354.28-.733.506-1.135.677-.403.171-.885.263-1.447.275-.537 0-1.05-.098-1.538-.293a3.902 3.902 0 01-1.318-.879l-10.09-10.09a3.838 3.838 0 01-.86-1.3 4.42 4.42 0 01-.311-1.556c0-.537.091-1.013.274-1.428a5.839 5.839 0 011.556-2.087c.318-.269.617-.55.898-.842a6.98 6.98 0 00.677-.806c.171-.244.263-.537.275-.88 0-.475-.165-.878-.494-1.208a20.94 20.94 0 01-.623-.659c-.256-.28-.543-.592-.86-.934a38.495 38.495 0 00-.99-1.025 18.24 18.24 0 00-1.025-.952 6.062 6.062 0 00-.933-.678 2.032 2.032 0 00-.788-.274c-.464 0-.86.165-1.19.494L4.986 4.395c-.452.451-.843.915-1.172 1.391A5.13 5.13 0 003.08 7.38c-.158.586-.244 1.319-.256 2.197 0 1.368.22 2.777.66 4.23a22.977 22.977 0 001.848 4.358 33.42 33.42 0 002.802 4.285 40.32 40.32 0 003.516 4.01 37.027 37.027 0 004.01 3.479 34.232 34.232 0 004.284 2.746 23.133 23.133 0 004.322 1.813c1.428.427 2.807.647 4.138.66z"/></g><defs><clipPath id="aa"><path transform="translate(.5)" d="M0 0h37.5v37.5H0z"/></clipPath></defs></svg></svg>